REM DIRINDEX 1\2,1\3,1\4,1\5
REM DIRNAME "folder01","folder02","folder03","folder04","folder05"
TITLE ""
FILE "P1Q_t_1201-1209.mp3" MP3
  TRACK 01 AUDIO
    TITLE "0:"
    INDEX 01 00:00:00
  TRACK 02 AUDIO
    TITLE "2:cjc173_4567"
    INDEX 01 00:00:08
  TRACK 03 AUDIO
    TITLE "0:"
    INDEX 01 00:02:07
  TRACK 04 AUDIO
    TITLE "2:cjc173_4568"
    INDEX 01 00:02:54
  TRACK 05 AUDIO
    TITLE "0:"
    INDEX 01 00:03:60
  TRACK 06 AUDIO
    TITLE "3:cjc173_4569"
    INDEX 01 00:04:30
  TRACK 07 AUDIO
    TITLE "0:"
    INDEX 01 00:05:43
  TRACK 08 AUDIO
    TITLE "4:cjc173_4570"
    INDEX 01 00:05:66
  TRACK 09 AUDIO
    TITLE "0:"
    INDEX 01 00:09:37
  TRACK 10 AUDIO
    TITLE "5:cjc173_4571"
    INDEX 01 00:09:54
  TRACK 11 AUDIO
    TITLE "0:"
    INDEX 01 00:14:67
  TRACK 12 AUDIO
    TITLE "3:cjc173_4572"
    INDEX 01 00:15:41
  TRACK 13 AUDIO
    TITLE "0:"
    INDEX 01 00:16:62
  TRACK 14 AUDIO
    TITLE "4:cjc173_4573"
    INDEX 01 00:17:07
  TRACK 15 AUDIO
    TITLE "0:"
    INDEX 01 00:18:57
  TRACK 16 AUDIO
    TITLE "5:cjc173_4574"
    INDEX 01 00:19:02
  TRACK 17 AUDIO
    TITLE "0:"
    INDEX 01 00:23:31
  TRACK 18 AUDIO
    TITLE "3:cjc173_4575"
    INDEX 01 00:24:01
  TRACK 19 AUDIO
    TITLE "0:"
    INDEX 01 00:24:75
  TRACK 20 AUDIO
    TITLE "4:cjc173_4576"
    INDEX 01 00:25:22
  TRACK 21 AUDIO
    TITLE "0:"
    INDEX 01 00:32:51
  TRACK 22 AUDIO
    TITLE "5:cjc173_4577"
    INDEX 01 00:32:69
  TRACK 23 AUDIO
    TITLE "0:"
    INDEX 01 00:38:52
  TRACK 24 AUDIO
    TITLE "3:cjc173_4578"
    INDEX 01 00:39:24
  TRACK 25 AUDIO
    TITLE "0:"
    INDEX 01 00:40:33
  TRACK 26 AUDIO
    TITLE "4:cjc173_4579"
    INDEX 01 00:40:55
  TRACK 27 AUDIO
    TITLE "0:"
    INDEX 01 00:44:06
  TRACK 28 AUDIO
    TITLE "5:cjc173_4580"
    INDEX 01 00:44:23
  TRACK 29 AUDIO
    TITLE "0:"
    INDEX 01 00:48:60
  TRACK 30 AUDIO
    TITLE "3:cjc173_4581"
    INDEX 01 00:49:30
  TRACK 31 AUDIO
    TITLE "0:"
    INDEX 01 00:50:45
  TRACK 32 AUDIO
    TITLE "4:cjc173_4582"
    INDEX 01 00:50:67
  TRACK 33 AUDIO
    TITLE "0:"
    INDEX 01 00:52:27
  TRACK 34 AUDIO
    TITLE "5:cjc173_4583"
    INDEX 01 00:52:46
  TRACK 35 AUDIO
    TITLE "0:"
    INDEX 01 00:56:17
  TRACK 36 AUDIO
    TITLE "3:cjc173_4584"
    INDEX 01 00:56:62
  TRACK 37 AUDIO
    TITLE "0:"
    INDEX 01 00:57:67
  TRACK 38 AUDIO
    TITLE "4:cjc173_4585"
    INDEX 01 00:58:14
  TRACK 39 AUDIO
    TITLE "0:"
    INDEX 01 01:00:30
  TRACK 40 AUDIO
    TITLE "5:cjc173_4586"
    INDEX 01 01:00:50
  TRACK 41 AUDIO
    TITLE "0:"
    INDEX 01 01:04:49
  TRACK 42 AUDIO
    TITLE "3:cjc173_4587"
    INDEX 01 01:05:22
  TRACK 43 AUDIO
    TITLE "0:"
    INDEX 01 01:06:23
  TRACK 44 AUDIO
    TITLE "4:cjc173_4588"
    INDEX 01 01:06:43
  TRACK 45 AUDIO
    TITLE "0:"
    INDEX 01 01:08:18
  TRACK 46 AUDIO
    TITLE "5:cjc173_4589"
    INDEX 01 01:08:36
  TRACK 47 AUDIO
    TITLE "0:"
    INDEX 01 01:12:16
  TRACK 48 AUDIO
    TITLE "3:cjc173_4590"
    INDEX 01 01:12:61
  TRACK 49 AUDIO
    TITLE "0:"
    INDEX 01 01:14:09
  TRACK 50 AUDIO
    TITLE "4:cjc173_4591"
    INDEX 01 01:14:28
  TRACK 51 AUDIO
    TITLE "0:"
    INDEX 01 01:17:33
  TRACK 52 AUDIO
    TITLE "5:cjc173_4592"
    INDEX 01 01:17:52
  TRACK 53 AUDIO
    TITLE "0:"
    INDEX 01 01:22:26
  TRACK 54 AUDIO
    TITLE "3:cjc173_4593"
    INDEX 01 01:22:73
  TRACK 55 AUDIO
    TITLE "0:"
    INDEX 01 01:24:11
  TRACK 56 AUDIO
    TITLE "4:cjc173_4594"
    INDEX 01 01:24:33
  TRACK 57 AUDIO
    TITLE "0:"
    INDEX 01 01:28:21
  TRACK 58 AUDIO
    TITLE "5:cjc173_4595"
    INDEX 01 01:28:38
  TRACK 59 AUDIO
    TITLE "0:"
    INDEX 01 01:33:14
